<?xml version="1.0" ?><!DOCTYPE svg  PUBLIC '-//W3C//DTD SVG 1.1//EN'  'http://www.w3.org/Graphics/SVG/1.1/DTD/svg11.dtd'><svg height="100%" style="fill-rule:evenodd;clip-rule:evenodd;stroke-linejoin:round;stroke-miterlimit:2;" version="1.1" viewBox="0 0 32 32" width="100%" xml:space="preserve" xmlns="http://www.w3.org/2000/svg" xmlns:serif="http://www.serif.com/" xmlns:xlink="http://www.w3.org/1999/xlink"><path d="M9,9l-1,0c-1.326,-0 -2.598,0.527 -3.536,1.464c-0.937,0.938 -1.464,2.21 -1.464,3.536c-0,2.977 -0,7.023 -0,10c-0,1.326 0.527,2.598 1.464,3.536c0.938,0.937 2.21,1.464 3.536,1.464c2.977,-0 7.023,-0 10,-0c1.326,0 2.598,-0.527 3.536,-1.464c0.937,-0.938 1.464,-2.21 1.464,-3.536l-0,-1l1,0c1.326,0 2.598,-0.527 3.536,-1.464c0.937,-0.938 1.464,-2.21 1.464,-3.536c0,-2.977 0,-7.023 0,-10c0,-1.326 -0.527,-2.598 -1.464,-3.536c-0.938,-0.937 -2.21,-1.464 -3.536,-1.464c-2.977,0 -7.023,0 -10,0c-1.326,-0 -2.598,0.527 -3.536,1.464c-0.937,0.938 -1.464,2.21 -1.464,3.536l0,1Zm12,5l0,10c0,0.796 -0.316,1.559 -0.879,2.121c-0.562,0.563 -1.325,0.879 -2.121,0.879c-2.977,0 -7.023,0 -10,0c-0.796,0 -1.559,-0.316 -2.121,-0.879c-0.563,-0.562 -0.879,-1.325 -0.879,-2.121c-0,-2.977 -0,-7.023 -0,-10c-0,-0.796 0.316,-1.559 0.879,-2.121c0.562,-0.563 1.325,-0.879 2.121,-0.879c2.977,-0 7.023,-0 10,-0c0.796,-0 1.559,0.316 2.121,0.879c0.563,0.562 0.879,1.325 0.879,2.121Zm2,7l1,0c0.796,0 1.559,-0.316 2.121,-0.879c0.563,-0.562 0.879,-1.325 0.879,-2.121c0,-2.977 0,-7.023 0,-10c0,-0.796 -0.316,-1.559 -0.879,-2.121c-0.562,-0.563 -1.325,-0.879 -2.121,-0.879c-2.977,0 -7.023,0 -10,0c-0.796,-0 -1.559,0.316 -2.121,0.879c-0.563,0.562 -0.879,1.325 -0.879,2.121l0,1l7,0c1.326,-0 2.598,0.527 3.536,1.464c0.937,0.938 1.464,2.21 1.464,3.536l-0,7Z"/></svg>